<svg id="Layer_1" data-name="Layer 1" xmlns="http://www.w3.org/2000/svg" viewBox="0 0 300 300"><defs><style>.cls-1{fill:#ff7181;}.cls-2{fill:#fea68a;}.cls-3{fill:#422622;}.cls-4{fill:#910004;}.cls-5{fill:#fe825a;}.cls-6{fill:#f8f8f8;}.cls-7{fill:#030202;}</style></defs><title>button_icon_</title><g id="development"><path class="cls-1" d="M183.28,163.78c10.32,3,20.76,5.58,30.91,9,9.21,3.12,15.07,10,17.8,19.32,4.34,14.85,8.55,29.74,12.78,44.63,2.57,9-2.38,17.09-11.68,18.83a443.49,443.49,0,0,1-47.63,6.2,438.28,438.28,0,0,1-54.84.82,426.62,426.62,0,0,1-46.91-4.75c-4.82-.77-9.65-1.53-14.45-2.44a14.09,14.09,0,0,1-11.05-17.5c4.4-15.85,8.87-31.68,13.58-47.44,2.49-8.33,8-14.45,16.2-17.34,10.48-3.67,21.27-6.43,32-9.35,1.06.15,1.38,1.05,1.87,1.79a61.86,61.86,0,0,0,13,14.75,29.19,29.19,0,0,0,14.51,6.18c1.49.06,3,.06,4.45,0,9.86-1.21,16.75-7.16,22.79-14.4a53,53,0,0,0,5.13-7.1A2.08,2.08,0,0,1,183.28,163.78Z"/><path class="cls-2" d="M130.32,139.31c.2-3.69-2.26-6-4.22-8.72a28.43,28.43,0,0,1-5.22-15.24c-1.8-2.45-1.54-5.42-1.9-8.2a107,107,0,0,1-.66-14.1c.52-1.3,1.73-1.26,2.82-1.45,12.31-2.08,24.6-4.27,36.47-8.27A54,54,0,0,0,168,79a2.49,2.49,0,0,1,3.29.22A58.09,58.09,0,0,1,184.5,96.43c.92,3.81,0,7.58-.3,11.34-.2,2.29-.27,4.64-1.36,6.77-.43,2-.82,4.07-1.3,6.09a26.66,26.66,0,0,1-7.14,13.24c-1.69,1.65-.57,3.75-1.46,5.44a2.44,2.44,0,0,1-.48-2.66c-3.48,3.16-7.47,6.44-11.59,9.56a9,9,0,0,1-5.73,1.76c-1.88,0-3.76-.1-5.64,0a11.61,11.61,0,0,1-7.64-2.26,123.17,123.17,0,0,1-11.11-9.15A2.33,2.33,0,0,1,130.32,139.31Z"/><path class="cls-3" d="M183.78,96.25a60.37,60.37,0,0,0-12.73-16.51c-.65-.6-1.19-1.18-2.3-.56-9.45,5.24-19.86,7.58-30.28,9.82-6.59,1.42-13.27,2.49-19.91,3.71a2.62,2.62,0,0,1-2.51.42.54.54,0,0,1-.56-.56c.12-6.6-.48-13.2,1.25-19.73a36.52,36.52,0,0,1,29.82-26.33A40.87,40.87,0,0,1,171,50.69c5.26,2.69,9.13,6.61,9.51,13a3,3,0,0,0,1.17,1.85c6,6.25,7.26,13.56,4.94,21.7-.55,1.94-1,3.91-1.47,5.86C185.42,94.44,185.67,95.82,183.78,96.25Z"/><path class="cls-2" d="M172.87,142.85a69.94,69.94,0,0,0,4.12,19,6.54,6.54,0,0,1-2.6,3.91c-1.88,1.26-3.47,2.87-5.25,4.24-12.39,9.48-24.36,8.92-36.25-1a50,50,0,0,0-4-3.24,6.52,6.52,0,0,1-2.6-3.9,69.08,69.08,0,0,0,4.09-19c1.16-.43,1.81.44,2.55,1,3,2.41,5.93,4.87,8.92,7.27a10.67,10.67,0,0,0,7.09,2.43c10.48-.1,8.9.74,17-6.12,1.56-1.31,3.19-2.53,4.73-3.85C171.29,143.09,171.92,142.48,172.87,142.85Z"/><path class="cls-4" d="M126.27,161.85l2.77,3.51c3.3,3,6.13,6.41,9.63,9.18,8.19,6.49,17.73,6.49,25.92,0,3.5-2.77,6.34-6.21,9.63-9.18l2.77-3.51,6.29,1.93a90.74,90.74,0,0,1-8.76,11.63c-5.57,6-12,10.38-20.2,11.68a48.43,48.43,0,0,0-5.38,0,31.89,31.89,0,0,1-14.41-6.36,62.28,62.28,0,0,1-13.43-15.3c-.36-.57-.75-1.12-1.13-1.67Z"/><path class="cls-5" d="M172.87,142.85a82.16,82.16,0,0,0-9.64,7.7c-2.74,2.4-5.61,3.92-9.33,3.62a23.64,23.64,0,0,0-4.29,0c-3.84.4-6.75-1.32-9.58-3.65-3.18-2.62-6.15-5.49-9.67-7.67,0-1.19,0-2.37,0-3.55s.12-2.19.19-3.52c3.21,2.65,6.29,5.11,9.28,7.67s6,4.23,10,3.93a22,22,0,0,1,4.06,0c3.86.4,6.76-1.36,9.51-3.77,3-2.64,6.16-5.14,9.44-7.86.07,1.36.13,2.45.18,3.55S172.9,141.67,172.87,142.85Z"/><path class="cls-5" d="M116.05,93.13a3.8,3.8,0,0,1,2.52-.42,9.48,9.48,0,0,1,.53,3.51,95.21,95.21,0,0,0,1.78,19.13c-4.58-5.07-8.74-10.3-7.28-17.87A7,7,0,0,1,116.05,93.13Z"/><path class="cls-5" d="M183.78,96.25c1.28-.7.76-2.2,1.41-3.18,2.4,0,3.66,1.18,4.26,3.46a14.12,14.12,0,0,1-2.21,12.37c-1.38,1.94-2.41,4.17-4.4,5.64q.58-5.58,1.15-11.15A18.46,18.46,0,0,0,183.78,96.25Z"/><path class="cls-6" d="M111.84,209.74c0,2.26-.1,4.53,0,6.78.15,2.53-1.69,4.66-1.68,6.84s1.78,4.33,1.7,6.85c-.11,3.24,0,6.48,0,9.72,0,1.65,0,3.31,0,5,.08,2.45,1.35,3.7,3.83,3.73,3,0,6,.08,9,0,1.33,0,1.6.43,1.63,1.67.1,5.59.14,5.65-5.38,5.56-2.84-.05-5.71.4-8.53-.41a10.46,10.46,0,0,1-7.81-10.12c0-4.74-.09-9.49,0-14.23a4.8,4.8,0,0,0-2.6-4.8c-1.48-.85-3.94-1.59-4-2.92s2.44-2.09,3.89-2.94a5,5,0,0,0,2.69-5c-.15-4.51-.06-9,0-13.55,0-6.52,4.56-11.08,11-11.11,3,0,6,.06,9,0,1.3,0,1.62.38,1.64,1.65.09,5.59.13,5.59-5.33,5.6h-5c-3,0-4.17,1.22-4.19,4.29,0,2.48,0,5,0,7.45Z"/><path class="cls-6" d="M202.25,238c-.26,3.29.48,6.62-.41,9.88a10.38,10.38,0,0,1-10.21,8c-3.09,0-6.17,0-9.26,0-1.28,0-1.82-.2-1.85-1.69-.08-5.58-.15-5.58,5.4-5.56h5c2.91,0,4.12-1.22,4.14-4.11,0-4.52.14-9,0-13.55-.11-2.83,1.82-5.35,1.66-7.74s-1.74-4.95-1.66-7.76c.14-4.44,0-8.88,0-13.32,0-2.92-1.21-4.12-4.1-4.14s-5.72-.07-8.58,0c-1.31,0-1.81-.23-1.82-1.71-.05-5.55-.11-5.61,5.42-5.53,2.77,0,5.56-.37,8.31.38a10.42,10.42,0,0,1,8,10.19c.05,4.59.13,9.19-.05,13.78-.09,2.47.66,4.15,2.83,5.37,1.41.79,3.76,1.49,3.77,2.79s-2.33,2-3.73,2.81c-2,1.16-3.12,2.69-2.83,5.12a29.48,29.48,0,0,1,0,3.39Z"/><path class="cls-6" d="M119.08,223.33c0-5.41.06-10.82,0-16.24,0-1.45.34-2,1.86-1.89,3.07.12,6.16,0,9.24.05a10.54,10.54,0,0,1,10.61,10.6q.11,7.44,0,14.89a10.55,10.55,0,0,1-10.57,10.64c-3.08.07-6.17-.06-9.25.05-1.45,0-1.92-.34-1.89-1.85C119.14,234.16,119.08,228.75,119.08,223.33Z"/><path class="cls-6" d="M144.4,223.36c0-5.42,0-10.84,0-16.26,0-1.42.31-1.94,1.84-1.9,4.89.1,9.78.08,14.67,0,1.31,0,1.61.41,1.63,1.67.11,5.6.15,5.6-5.36,5.6-5.85,0-5.82,0-5.55,5.82.05,1,.29,1.57,1.4,1.42a3.38,3.38,0,0,1,.45,0c5.84.1,5.81.09,5.44,5.93-.06,1-.29,1.36-1.29,1.31-1.28-.07-2.58.11-3.83,0-1.89-.24-2.2.59-2.18,2.26.06,5,0,5,5,5h.46c5.84,0,5.81,0,5.42,6-.07,1-.34,1.29-1.32,1.28-5.11,0-10.23-.07-15.35,0-1.52,0-1.46-.77-1.45-1.82C144.41,234.19,144.4,228.78,144.4,223.36Z"/><path class="cls-6" d="M166.12,205.48a3.13,3.13,0,0,1,.37-.16c6.79-.55,6.79-.55,8.1,6,.35,1.76.65,3.54,1,5.3s.7,3.38,1.07,5.16c1.19-.56.92-1.78,1.11-2.66.88-4,1.65-8.08,2.38-12.14.24-1.34.79-1.8,2.21-1.8,5.54,0,5.52,0,4.41,5.41Q183.84,225,181,239.5c-.27,1.43-.79,2-2.32,1.94-5.23-.08-5.27,0-6.33-5.19C170.25,226,168.21,215.83,166.12,205.48Z"/><path class="cls-7" d="M140.78,96.66a3.62,3.62,0,1,1-3.64-3.54A3.66,3.66,0,0,1,140.78,96.66Z"/><path class="cls-7" d="M166.05,93.12a3.62,3.62,0,1,1-3.57,3.6A3.65,3.65,0,0,1,166.05,93.12Z"/><path class="cls-5" d="M174.22,165.36c-3.72,5.08-8.08,9.49-13.73,12.41-6.57,3.41-13.06,2.94-19.3-.85A41.84,41.84,0,0,1,129,165.36c2.33,1,4,3,5.89,4.53a28.64,28.64,0,0,0,15.13,6.31c5.06.49,9.72-1.16,14.14-3.6A58.23,58.23,0,0,0,173,166C173.34,165.74,173.5,165,174.22,165.36Z"/><path class="cls-1" d="M126.32,223.2c0-3.08.05-6.16,0-9.24,0-1.2.36-1.49,1.53-1.52,4.76-.13,5.72.74,5.73,5.46,0,4.14,0,8.27,0,12.4,0,3.13-4.21,5.41-6.85,3.8-.57-.35-.37-.94-.37-1.43C126.31,229.52,126.32,226.36,126.32,223.2Z"/></g></svg>