<svg id="Layer_1" data-name="Layer 1" xmlns="http://www.w3.org/2000/svg" viewBox="0 0 302.5 201.5"><defs><style>.cls-1{fill:#29abe2;}.cls-2{fill:#fff;}</style></defs><title>logo_v2</title><rect id="bkgrd" class="cls-1" width="302.5" height="201.5"/><g id="vp"><path class="cls-2" d="M90.64,84.08a3.66,3.66,0,0,0-2.64.68c-.2.19-.29.69-.29,1.5V99.11a7.42,7.42,0,0,0,.86,0A9.8,9.8,0,0,0,94,97.75q2.73-1.74,2.73-6.42Q96.68,84.09,90.64,84.08Z" transform="translate(0.5 1)"/><path class="cls-2" d="M72,55a44,44,0,1,0,44,44A44,44,0,0,0,72,55Zm1,29a4.94,4.94,0,0,0-2.83.63,6.43,6.43,0,0,0-1.49,2.69L67,91.79Q61.13,108,58.73,116.67c-.09.39-.25.58-.48.58s-.78-1.2-1.58-3.6q-2.16-6.57-3.36-9.89Q52,100.12,49.5,92.85l-2.34-6.46a4,4,0,0,0-1-1.8,3.37,3.37,0,0,0-1.92-.51c-1.06,0-1.69-.06-1.9-.09A.35.35,0,0,1,42,83.6c0-.29.32-.43,1-.43h.43c.58,0,1.58,0,3,.07s2.44.07,3.05.07l1.85-.07c1.07,0,2.6-.07,4.58-.07h.68c.57,0,.86.15.86.44s-.58.49-1.73.52l-2.93.1c-.67,0-1,.25-1,.66a1.64,1.64,0,0,0,.08.4l.33,1.31q.11.39,4.7,13.52l2.93,8.62q7.95-22.44,7.95-23.6c0-.74-.79-1.07-2.36-1H63.87c-.38,0-.58-.14-.58-.43s.48-.53,1.44-.53h1.64a19,19,0,0,0,2,.14h1.54L73,83.17c.57,0,.86.13.86.39S73.6,84,73,84ZM97.74,98.53a11.35,11.35,0,0,1-6.34,1.63,23.61,23.61,0,0,1-3.69-.33v13.63a6.22,6.22,0,0,0,.09,1.39,1.27,1.27,0,0,0,1.06.82,21,21,0,0,0,2.69.19c.35,0,.53.11.53.34s-.23.47-.68.47h-11c-1,0-1.44-.15-1.44-.48s.34-.33,1-.33c1.51,0,2.37-.15,2.59-.43s.4-.45.44-1V86.1c0-1-.28-1.6-.82-1.83a5.3,5.3,0,0,0-1.68-.19h-.82c-.48,0-.72-.13-.72-.38s.45-.43,1.35-.43H90.83q5.48,0,8,1.92a7.17,7.17,0,0,1,2.88,6.09A8.17,8.17,0,0,1,97.74,98.53Z" transform="translate(0.5 1)"/></g><path class="cls-2" d="M167.3,73.67a12,12,0,0,1-4.43,9.9,13.47,13.47,0,0,1-8.67,2.6h-9.76c-.46,0-.68-.12-.68-.36s.38-.33,1.15-.33q1.47,0,1.83-.54a3.5,3.5,0,0,0,.15-1.36V64.17a4.17,4.17,0,0,0-.27-2.05c-.18-.19-.8-.29-1.86-.29-.55,0-.82-.13-.82-.39s.2-.29.61-.29h6.26q6.48,0,9.18.9a9.76,9.76,0,0,1,5.29,4.28A13.42,13.42,0,0,1,167.3,73.67Zm-4-.14q0-6-2.34-8.79t-7.31-2.8c-1.61,0-2.58.17-2.92.5a3.87,3.87,0,0,0-.21,1.74V83.39a8.91,8.91,0,0,0,0,1.23.62.62,0,0,0,.31.36,9.63,9.63,0,0,0,3.63.43,7.89,7.89,0,0,0,6.27-2.74C162.43,80.74,163.27,77.7,163.27,73.53Z" transform="translate(0.5 1)"/><path class="cls-2" d="M178,86c0,.15-.1.22-.32.22h-6c-.41,0-.61-.07-.61-.19s.26-.26.79-.28c.72,0,1.1-.13,1.14-.25a12.59,12.59,0,0,0,0-1.56V72.21a9.61,9.61,0,0,0-.07-1.65c0-.15-.23-.25-.54-.27h-1.08c-.22,0-.33-.08-.33-.25s.16-.25.47-.25h5.94c.38,0,.58.09.58.29s-.41.22-1.23.25c-.33,0-.54,0-.61.16a2.53,2.53,0,0,0-.11,1V85.05a.45.45,0,0,0,.27.47,5.85,5.85,0,0,0,1.28.18C177.81,85.72,178,85.81,178,86Z" transform="translate(0.5 1)"/><path class="cls-2" d="M197.46,81.2c0,.12-.21.19-.64.22h-1.16c-.12,0-.21.13-.27.32a5.59,5.59,0,0,0-.09,1.3v1.44a8.4,8.4,0,0,1-5.47,1.94,8.71,8.71,0,0,1-6.3-2.25,7.89,7.89,0,0,1-2.34-6,8.69,8.69,0,0,1,2.29-6.27,8,8,0,0,1,6-2.38,8.67,8.67,0,0,1,4.17,1.22.68.68,0,0,0,.33.11c.19,0,.32-.16.39-.47s.31-.65.51-.65a.26.26,0,0,1,.29.29,5.11,5.11,0,0,0-.08.61c-.07.7-.1,2.08-.1,4.14,0,.55-.15.83-.44.83s-.32-.14-.32-.43A5.72,5.72,0,0,0,193,71.46a4.15,4.15,0,0,0-3.23-1.38,4.27,4.27,0,0,0-3.78,2.15,11,11,0,0,0-1.36,5.89A10.18,10.18,0,0,0,186,83.8a4.31,4.31,0,0,0,3.76,2.08c1.44,0,2.33-.45,2.67-1.36a4.51,4.51,0,0,0,.18-1.5,3.33,3.33,0,0,0-.16-1.44,2.87,2.87,0,0,0-1.35-.16h-.58c-.19,0-.29-.08-.29-.24s.29-.3.87-.3h5.79C197.26,80.88,197.46,81,197.46,81.2Z" transform="translate(0.5 1)"/><path class="cls-2" d="M206.14,86c0,.15-.11.22-.33.22h-6c-.41,0-.62-.07-.62-.19s.27-.26.8-.28c.72,0,1.09-.13,1.13-.25a10.67,10.67,0,0,0,0-1.56V72.21a9.61,9.61,0,0,0-.07-1.65c-.05-.15-.23-.25-.54-.27h-1.08c-.21,0-.32-.08-.32-.25s.15-.25.47-.25h5.94c.38,0,.57.09.57.29s-.41.22-1.22.25c-.34,0-.54,0-.61.16a2.34,2.34,0,0,0-.11,1V85.05a.45.45,0,0,0,.27.47,5.74,5.74,0,0,0,1.28.18C206,85.72,206.14,85.81,206.14,86Z" transform="translate(0.5 1)"/><path class="cls-2" d="M223.16,74.15c0,.33-.14.5-.43.5s-.48-.22-.5-.66a5.76,5.76,0,0,0-.61-2.34c-.46-.83-1.5-1.25-3.14-1.25-.24,0-.61,0-1.11,0V84.91c0,.45.35.69,1,.72s1.05.12,1.05.29-.21.25-.62.25H213c-.48,0-.72-.09-.72-.26s.39-.26,1.18-.28a1.45,1.45,0,0,0,.58-.08.39.39,0,0,0,.32-.38c0-.2,0-.81,0-1.82V70.4c-1.87,0-3.09.17-3.65.57s-.95,1.36-1.14,2.86c-.07.54-.23.82-.47.82s-.32-.27-.32-.82.11-2,.32-4h8.39l4.54-.06a3.16,3.16,0,0,0,.75-.12l0,.74.11,1.27.11,1.48.07.63Q223.16,74,223.16,74.15Z" transform="translate(0.5 1)"/><path class="cls-2" d="M241.81,86q0,.21-.72.21H234c-.43,0-.65-.09-.65-.28s.43-.3,1.3-.33c1,0,1.54-.14,1.54-.35a4.68,4.68,0,0,0-.21-.68c0-.19-.33-1-.83-2.4L234.72,81h-5.15a24.11,24.11,0,0,0-1.48,4.28c0,.22.15.34.44.36l.46,0h.54l.33.1c.29,0,.43.08.43.22s-.25.25-.76.25l-1.27,0c-.78,0-1.47-.05-2.07-.05h-.33l-.32.05-.4,0h-.07c-.38,0-.58-.07-.58-.21s.16-.27.47-.29l.87-.07a1.39,1.39,0,0,0,.79-.33,25.65,25.65,0,0,0,1.76-4.11c.41-1.09.81-2.1,1.19-3a8,8,0,0,0,.29-.75,6.51,6.51,0,0,1,.29-.76q.6-1.48,1.73-4.48l.54-1.51.25-.65c.14-.36.29-.54.43-.54s.23.34.47,1q1.08,2.63,5.58,13.9c.28.74.56,1.14.82,1.19a11.41,11.41,0,0,0,1.16.1C241.58,85.69,241.81,85.8,241.81,86Zm-7.31-5.66-2.31-6.15q-.88,2.16-2.41,6.15Z" transform="translate(0.5 1)"/><path class="cls-2" d="M256.71,82.93c0,1.34,0,2.47-.07,3.38a3.74,3.74,0,0,1-.54,0l-.56-.06c-.35,0-.8-.05-1.35-.05H252.5l-6.16-.07h-3c-.31,0-.47-.08-.47-.24s.47-.24,1.41-.3q.39,0,.48-.18a2,2,0,0,0,.09-.8V72.56c0-1.34-.1-2-.32-2.12a1.65,1.65,0,0,0-.63-.08,4.07,4.07,0,0,1-.63,0c-.26,0-.4-.1-.4-.29s.16-.25.47-.25h5.83q.69,0,.69.3c0,.14-.4.21-1.19.24-.38,0-.61.11-.68.25a5.31,5.31,0,0,0-.11,1.55V85.52l2.08,0c2.58,0,4.19-.26,4.83-.76a3.72,3.72,0,0,0,1-2.59q.08-.87.39-.87C256.56,81.34,256.71,81.87,256.71,82.93Z" transform="translate(0.5 1)"/><path class="cls-2" d="M167.3,116.88a12,12,0,0,1-4.43,9.89,13.47,13.47,0,0,1-8.67,2.6h-9.76c-.46,0-.68-.12-.68-.36s.38-.33,1.15-.33q1.47,0,1.83-.54a3.5,3.5,0,0,0,.15-1.36V107.37a4.17,4.17,0,0,0-.27-2.05c-.18-.19-.8-.29-1.86-.29-.55,0-.82-.13-.82-.4s.2-.28.61-.28h6.26q6.48,0,9.18.9a9.76,9.76,0,0,1,5.29,4.28A13.43,13.43,0,0,1,167.3,116.88Zm-4-.15q0-6-2.34-8.79t-7.31-2.8c-1.61,0-2.58.17-2.92.5a3.87,3.87,0,0,0-.21,1.74v19.21a8.91,8.91,0,0,0,0,1.23.62.62,0,0,0,.31.36,9.63,9.63,0,0,0,3.63.43,7.89,7.89,0,0,0,6.27-2.74C162.43,123.94,163.27,120.9,163.27,116.73Z" transform="translate(0.5 1)"/><path class="cls-2" d="M186.77,125.5s0,.17-.05.45a5.23,5.23,0,0,0-.05.75v2.09a2.76,2.76,0,0,0,.1.72l-6-.11-6.88.11c-.51,0-.76-.09-.76-.28s.14-.33.43-.33a3,3,0,0,0,1.35-.16c.13-.11.2-.5.2-1.17V115.18c0-1-.08-1.5-.25-1.56a5.11,5.11,0,0,0-1.26-.09c-.29,0-.43-.09-.43-.25s.15-.29.46-.29H186v.25l0,.53c.05.35.14,1.42.29,3.19a2.63,2.63,0,0,1,0,.43c0,.3-.08.46-.25.46s-.37-.24-.46-.72c-.34-1.83-1-2.89-1.9-3.21a16.83,16.83,0,0,0-3.73-.25h-1.83v6.73H179a6.26,6.26,0,0,0,2.82-.37q.54-.39.72-2.07c.07-.68.21-1,.43-1s.36.24.36.72c0,.29,0,.73-.06,1.33s0,1.06,0,1.37c0,1.56,0,2.63.08,3.2,0,.19,0,.35,0,.47,0,.38-.12.58-.36.58s-.35-.3-.42-.91c-.15-1.29-.38-2.07-.71-2.32A6.09,6.09,0,0,0,179,121h-.89v7.77a39.69,39.69,0,0,0,6.2-.29c1-.26,1.52-1.41,1.69-3.45q0-.54.39-.54T186.77,125.5Z" transform="translate(0.5 1)"/><path class="cls-2" d="M203.08,124.74a4.36,4.36,0,0,1-1.73,3.45,6.35,6.35,0,0,1-4.18,1.43,7.55,7.55,0,0,1-3.78-1.12l-.28-.07c-.15,0-.23.11-.25.34a6,6,0,0,1-.11.6.34.34,0,0,1-.36.25.32.32,0,0,1-.36-.36s0-.41.07-1.08.07-1.25.07-1.73v-1.83q0-.69.36-.69c.24,0,.42.37.54,1.12.46,2.64,1.87,4,4.25,4a2.67,2.67,0,0,0,3-3,3.14,3.14,0,0,0-.72-2.15,9.59,9.59,0,0,0-2.81-1.87,14.59,14.59,0,0,1-3.49-2.15,3.61,3.61,0,0,1-1-2.58,4.14,4.14,0,0,1,1.44-3.24,5.28,5.28,0,0,1,3.64-1.27,6.2,6.2,0,0,1,2.91.82.66.66,0,0,0,.29.11c.17,0,.28-.17.33-.52s.19-.52.43-.52a.32.32,0,0,1,.36.36c0,.05,0,.14,0,.29a11.82,11.82,0,0,0-.07,1.47c0,.36,0,1,.11,2a1.51,1.51,0,0,1,0,.32c0,.29-.09.43-.29.43s-.37-.21-.46-.64a4.72,4.72,0,0,0-1.32-2.52,3.24,3.24,0,0,0-2.32-.94c-1.73,0-2.59.92-2.59,2.76a3,3,0,0,0,.68,2,2.82,2.82,0,0,0,.8.68c.28.17,1.12.59,2.51,1.26a11.51,11.51,0,0,1,3.32,2.2A3.61,3.61,0,0,1,203.08,124.74Z" transform="translate(0.5 1)"/><path class="cls-2" d="M215.21,129.15c0,.14-.11.22-.33.22h-6c-.41,0-.62-.07-.62-.19s.27-.26.8-.28c.72-.05,1.1-.13,1.13-.25a9.82,9.82,0,0,0,.06-1.56V115.41a9.1,9.1,0,0,0-.08-1.65q-.07-.23-.54-.27h-1.08c-.21,0-.32-.08-.32-.25s.15-.25.47-.25h5.94c.38,0,.57.09.57.29s-.41.22-1.22.25c-.34,0-.54,0-.61.16a2.53,2.53,0,0,0-.11,1v13.57a.45.45,0,0,0,.27.47,5.85,5.85,0,0,0,1.28.18C215.06,128.92,215.21,129,215.21,129.15Z" transform="translate(0.5 1)"/><path class="cls-2" d="M236.88,124.4c0,.12-.22.19-.65.22h-1.15c-.12,0-.21.13-.27.32a5.59,5.59,0,0,0-.09,1.3v1.44a8.44,8.44,0,0,1-5.47,1.94,8.71,8.71,0,0,1-6.3-2.25,7.89,7.89,0,0,1-2.34-6,8.73,8.73,0,0,1,2.28-6.27,8,8,0,0,1,6-2.38A8.71,8.71,0,0,1,233.1,114a.68.68,0,0,0,.32.11c.19,0,.33-.16.4-.47s.31-.65.5-.65a.26.26,0,0,1,.29.29s0,.16-.07.61c-.07.7-.11,2.08-.11,4.14,0,.55-.14.83-.43.83s-.33-.14-.33-.43a5.62,5.62,0,0,0-1.31-3.73,4.13,4.13,0,0,0-3.22-1.38,4.24,4.24,0,0,0-3.78,2.15,11,11,0,0,0-1.37,5.89,10.09,10.09,0,0,0,1.39,5.68,4.3,4.3,0,0,0,3.76,2.08c1.44,0,2.33-.45,2.66-1.36a4.51,4.51,0,0,0,.18-1.5,3.16,3.16,0,0,0-.16-1.44,2.87,2.87,0,0,0-1.35-.16h-.58c-.19,0-.28-.08-.28-.24s.28-.3.86-.3h5.8C236.67,124.08,236.88,124.18,236.88,124.4Z" transform="translate(0.5 1)"/><path class="cls-2" d="M256.5,113.24c0,.17-.27.25-.79.25h-.91c-.21,0-.34.05-.37.15a4.05,4.05,0,0,0-.06,1v13.27c0,.87,0,1.38,0,1.52s-.14.22-.33.22-1.12-1-2.56-3a13.34,13.34,0,0,0-.78-1.09l-.4-.54q-1.8-2.39-6.52-9v11.41c0,.9.13,1.37.38,1.42a8.56,8.56,0,0,0,1.39.07h.14c.29,0,.43.08.43.23s-.26.27-.79.27l-1.19-.07c-.36,0-.68,0-1,0s-.48,0-.72,0a13.74,13.74,0,0,1-1.48.07q-.57,0-.57-.27c0-.15.23-.23.68-.23h.33l.46,0c.58-.05.88-.15.9-.32a6.65,6.65,0,0,0,0-1.06v-10a9.27,9.27,0,0,0-.32-3.27,1.83,1.83,0,0,0-1.7-.72c-.6,0-.9-.1-.9-.31s.16-.23.47-.23h4.57l8.5,11.7v-10a3.91,3.91,0,0,0-.07-1.05c-.05-.09-.24-.14-.58-.14h-1c-.46,0-.68-.09-.68-.27s.11-.18.34-.2,1,0,2.43,0,2.09,0,2.3,0S256.5,113.11,256.5,113.24Z" transform="translate(0.5 1)"/><rect id="seperation" class="cls-2" x="128.5" y="50" width="2" height="100"/></svg>