<svg id="vp" xmlns="http://www.w3.org/2000/svg" viewBox="0 0 260.37 239.61"><defs><style>.cls-1,.cls-2{fill:#998819;}.cls-1{stroke:#000;stroke-miterlimit:10;stroke-width:0.5px;}.cls-2{font-size:36px;font-family:Marion-Regular, Marion;}</style></defs><title>logo_no_shadow</title><path class="cls-1" d="M139.06,158.17,96.55,57.52c-3-8-13-11.62-20.27-11.66l0-5.22L127,40.9l0,5.22-8.64,0q-6.39,0-6.41,3.28a18.22,18.22,0,0,0,.36,3.49c.24,1.28.55,2.74.92,4.37l30.16,78.65L173.29,61c.71-2,1.58-4.12,1.59-6.1q0-8.55-17-8.64l0-5.22,45.1.23,0,5.23-5.83,0c-4.39,0-7.31,2.86-9.6,9L142,159Z" transform="translate(-27.04 -40.39)"/><path class="cls-1" d="M128.67,186v-5.34c10.15,0,17.22-4.27,17.22-12.81l1-83.61c0-7.12-8.3-10.68-18.89-10.68V68.05h27.94q5.52,0,8.61-.09l5.52-.18c1.62-.06,3.24-.11,4.85-.18s3.82-.08,6.61-.08Q219,67.52,219,102a34.75,34.75,0,0,1-2.26,12.63A27.85,27.85,0,0,1,209.8,125a32.34,32.34,0,0,1-11.88,6.94,52.25,52.25,0,0,1-17.06,2.49q-5.36,0-10.45-.45a130,130,0,0,1-13-1.51v34.69c0,9,8.52,13.52,19.56,13.52V186ZM167.48,73.56c-4.69,0-10,3.15-10,9.43v42.88c2.79.59,8.86,1.07,12.2,1.42a105.53,105.53,0,0,0,11.21.54,18.82,18.82,0,0,0,9.45-2.23,20,20,0,0,0,6.53-5.87,24.54,24.54,0,0,0,3.76-8.45,41.91,41.91,0,0,0,1.17-10q0-27.75-29.94-27.76Z" transform="translate(-27.04 -40.39)"/><text class="cls-2" transform="translate(33.33 183.8)">Vickers Pratt <tspan x="39.08" y="36">Designs</tspan></text></svg>